<?xml version="1.0" standalone="no"?>
<!DOCTYPE svg PUBLIC "-//W3C//DTD SVG 20010904//EN"
 "http://www.w3.org/TR/2001/REC-SVG-20010904/DTD/svg10.dtd">
<svg version="1.0" xmlns="http://www.w3.org/2000/svg"
 width="1920.000000pt" height="960.000000pt" viewBox="0 0 1920.000000 960.000000"
 preserveAspectRatio="xMidYMid meet">

<g transform="translate(0.000000,960.000000) scale(0.100000,-0.100000)"
fill="#000000" stroke="none">
<path d="M9387 8472 c-115 -554 -216 -1043 -226 -1087 l-18 -80 -7 244 c-6
200 -11 255 -26 300 -26 77 -62 142 -123 222 -43 56 -62 72 -112 94 -33 15
-82 37 -110 50 -93 45 -140 50 -230 26 -43 -12 -117 -41 -163 -64 -117 -58
-167 -115 -226 -259 -8 -21 -19 -38 -23 -37 -4 0 -201 218 -438 484 -236 266
-431 482 -432 481 -2 -1 135 -415 303 -921 274 -819 305 -919 290 -927 -62
-35 -138 -137 -166 -224 -7 -21 -16 -43 -20 -49 -5 -5 -13 -48 -20 -95 -14
-100 -30 -161 -44 -166 -6 -2 -472 149 -1036 336 -563 186 -1025 338 -1026
337 -1 -1 338 -304 754 -672 l757 -671 3 -276 2 -275 -47 -10 c-708 -143
-2083 -429 -2083 -433 0 -4 1747 -367 2108 -438 l22 -4 0 -274 0 -273 -97 -86
c-59 -53 -103 -85 -112 -82 -9 3 -24 8 -34 12 -18 7 -17 5 2 -34 26 -51 42
-91 36 -91 -2 0 -11 13 -19 28 -8 16 -35 52 -59 82 -48 57 -54 97 -13 84 19
-6 19 -5 -4 14 -25 21 -25 21 -3 22 19 0 21 3 13 31 -7 23 -6 31 6 36 24 9 15
23 -16 23 -58 0 -90 -67 -55 -114 21 -27 19 -43 -8 -70 -63 -63 -68 -75 -65
-157 2 -69 0 -79 -19 -95 -66 -55 -1071 -949 -1069 -951 1 -1 251 81 556 182
305 102 560 185 567 185 8 0 13 -21 15 -57 l3 -58 55 -12 c84 -20 135 0 71 27
-18 7 -31 21 -34 36 -7 37 17 106 39 115 39 16 44 11 44 -45 0 -29 3 -68 6
-85 l7 -31 93 0 c76 0 94 3 94 15 0 8 -14 17 -36 21 -40 7 -50 25 -60 107 -5
39 -3 56 7 64 8 5 124 47 259 92 l245 81 283 0 c155 0 282 -1 282 -3 0 -1
-175 -528 -390 -1171 -214 -644 -389 -1171 -387 -1172 1 -1 405 449 897 1001
652 731 897 999 901 987 3 -10 127 -603 275 -1319 148 -716 270 -1301 271
-1300 1 1 124 594 273 1317 150 723 273 1316 274 1317 2 3 1754 -1958 1788
-2000 10 -12 -158 504 -372 1148 -215 643 -390 1176 -390 1182 0 10 31 13 121
13 77 0 118 4 114 10 -4 7 -720 10 -2116 10 -2277 0 -2155 -3 -2193 51 -15 21
-16 116 -16 1036 0 954 1 1013 18 1021 18 10 51 10 68 0 5 -4 26 -3 46 1 20 5
43 4 52 -1 11 -6 18 -5 21 4 4 13 14 458 15 686 l0 112 631 0 632 0 -5 -148
c-4 -137 -6 -150 -28 -175 -28 -33 -41 -34 -66 -6 -31 34 -119 89 -194 121
-54 22 -87 29 -140 30 -101 1 -146 -24 -220 -123 -33 -44 -60 -82 -60 -85 0
-3 -9 -19 -21 -35 -11 -16 -18 -33 -14 -38 3 -6 -10 -30 -29 -55 -36 -47 -52
-83 -42 -93 3 -4 6 2 6 12 0 10 3 15 7 12 3 -4 13 -1 21 6 13 10 14 9 7 -2 -6
-10 -4 -12 4 -6 9 5 12 -1 9 -21 -3 -25 -7 -29 -29 -26 -24 3 -27 -1 -31 -32
-4 -39 8 -50 15 -13 2 12 5 -4 6 -35 1 -57 1 -57 36 -64 19 -3 56 -3 83 2 l47
7 -62 14 c-54 13 -85 35 -69 51 8 7 117 -30 132 -46 8 -8 18 -11 22 -7 4 4 2
10 -5 12 -6 2 -31 20 -55 39 -24 18 -51 34 -60 34 -25 0 -33 21 -10 27 20 5
20 5 1 36 -25 42 -25 43 13 78 18 16 27 29 20 29 -6 0 -12 5 -12 11 0 7 9 9
22 6 34 -9 71 36 62 77 -3 17 -11 37 -16 44 -12 14 -5 24 57 88 66 67 157 71
271 9 33 -18 75 -36 92 -40 32 -7 45 -25 17 -25 -8 0 -15 -6 -15 -12 0 -9 -4
-8 -10 2 -7 12 -10 12 -10 1 0 -7 25 -37 55 -65 30 -29 52 -56 48 -59 -3 -4
-1 -7 5 -7 16 0 15 12 -3 36 -8 10 -15 25 -15 33 0 26 39 -19 67 -76 14 -30
33 -61 41 -69 8 -8 18 -38 22 -67 l8 -52 1 45 c1 33 4 41 11 30 12 -19 13
-267 1 -274 -5 -3 -12 5 -15 19 -4 14 -13 25 -21 25 -8 0 -15 8 -15 18 -1 21
-27 58 -37 49 -3 -4 -14 11 -24 33 -20 44 -22 56 -8 53 5 -2 9 2 9 7 0 6 -6
10 -14 10 -16 0 -59 50 -51 58 2 3 19 5 36 4 29 -1 30 1 24 31 -4 18 -21 48
-39 67 -17 19 -35 40 -40 45 -5 6 -3 0 3 -12 10 -20 9 -23 -9 -23 -14 0 -19
-4 -14 -12 5 -8 2 -9 -9 -5 -10 4 -17 1 -17 -6 -1 -7 -3 -41 -5 -77 -2 -36 -5
-73 -5 -82 -1 -10 -5 -18 -11 -18 -5 0 -9 -9 -9 -20 0 -13 7 -20 20 -20 21 0
23 -7 21 -50 -1 -18 1 -21 7 -12 7 11 11 8 16 -12 3 -14 13 -26 20 -26 21 0
27 -29 8 -39 -30 -15 -99 -23 -107 -12 -11 19 -47 13 -43 -6 2 -12 14 -19 36
-21 20 -2 32 -9 32 -18 0 -8 -4 -14 -10 -14 -5 0 -10 -8 -10 -17 0 -13 3 -14
12 -5 7 7 18 12 25 12 17 0 50 -33 46 -47 -2 -5 3 -16 12 -23 9 -8 15 -29 15
-57 0 -39 5 -49 48 -94 27 -28 58 -51 71 -52 25 -2 57 -39 64 -77 2 -14 6 58
7 160 2 150 6 295 9 331 1 11 31 6 31 -5 0 -6 5 -4 10 4 5 8 10 11 10 5 0 -5
16 -10 35 -10 19 0 35 4 35 9 0 5 6 4 13 -3 10 -8 17 -7 27 2 10 10 11 9 5 -3
-7 -13 -6 -13 7 -2 8 7 23 10 32 6 14 -6 16 39 18 502 l3 509 1676 0 c1662 0
1677 0 1699 -20 52 -47 50 -12 50 -930 0 -719 2 -855 14 -855 7 0 19 -7 26
-15 10 -12 2 -11 -34 4 -25 11 -48 21 -51 21 -3 0 -12 0 -21 0 -8 0 -12 4 -9
10 9 14 -59 13 -109 -2 -81 -24 -212 -136 -204 -175 2 -10 14 -20 27 -21 14
-2 34 -10 46 -18 12 -8 25 -11 30 -7 4 5 5 2 1 -5 -4 -6 -2 -12 4 -12 6 0 8
-4 5 -10 -3 -5 0 -20 6 -32 l13 -23 7 25 c6 25 7 24 20 -10 7 -19 12 -38 11
-42 -3 -13 40 -20 48 -8 5 9 9 9 14 1 11 -16 26 -13 20 4 -9 23 29 19 43 -5 7
-10 10 -26 7 -34 -3 -8 0 -17 6 -21 7 -4 4 -18 -11 -42 -17 -28 -19 -37 -9
-43 7 -5 20 -6 28 -2 12 4 14 0 8 -22 -6 -24 -4 -27 13 -21 13 4 23 0 29 -11
6 -12 22 -16 53 -16 24 1 73 1 108 2 61 0 63 1 56 23 -11 30 -9 146 3 160 27
34 22 94 -10 138 -10 13 -31 43 -48 67 -17 23 -34 41 -39 38 -4 -3 -18 9 -31
27 -12 18 -17 27 -10 20 10 -9 15 -9 25 0 7 7 449 102 983 212 535 109 972
201 972 205 0 3 -424 93 -942 199 -519 106 -973 200 -1010 208 l-68 15 0 332
0 331 671 595 c370 327 688 609 708 627 l36 32 -105 -33 c-58 -18 -469 -153
-913 -301 l-808 -267 17 -27 c10 -14 39 -52 66 -84 48 -59 70 -93 82 -134 6
-20 4 -23 -18 -23 -15 0 -27 7 -30 18 -8 23 -90 92 -110 92 -9 0 -23 11 -32
25 -18 28 -40 34 -30 8 4 -10 -5 -5 -21 11 -45 45 -113 25 -179 -53 -56 -65
-95 -101 -110 -101 -22 0 47 81 115 137 49 40 88 90 78 100 -3 2 -16 -1 -30
-6 -18 -7 -27 -7 -31 2 -2 7 -5 4 -5 -5 -1 -10 -5 -18 -11 -18 -5 0 -10 -7
-10 -16 0 -12 -6 -15 -22 -10 -13 3 -26 6 -30 6 -5 0 -8 4 -8 10 0 5 6 7 13 4
8 -3 14 2 14 11 0 8 -4 15 -8 15 -4 0 -19 10 -33 23 -26 25 -29 64 -6 107 6
11 9 20 6 20 -3 0 -1 14 4 30 12 42 -6 28 -20 -15 -6 -19 -14 -35 -16 -35 -10
0 -34 29 -34 41 0 10 3 10 12 1 8 -8 14 -5 25 15 16 30 17 47 3 38 -15 -9 -51
5 -44 17 4 6 2 8 -4 4 -6 -3 -14 -2 -17 4 -5 8 -12 7 -22 -2 -19 -15 -43 -19
-43 -7 0 6 -6 7 -12 4 -7 -4 -1 3 14 14 19 15 24 27 20 43 -3 14 -1 19 6 14 7
-4 12 -1 12 7 0 7 20 35 45 60 46 48 57 77 30 77 -8 0 -17 12 -21 28 -3 15
-10 37 -15 50 -5 13 -9 38 -9 57 0 24 -5 35 -15 35 -8 0 -15 8 -15 18 0 14 -2
15 -10 2 -5 -8 -10 -12 -10 -7 0 4 6 16 12 27 10 16 10 24 0 40 -6 11 -12 23
-12 27 0 5 5 1 10 -7 8 -12 10 -10 10 10 0 14 5 32 10 40 8 12 10 12 11 -5 0
-11 119 335 265 770 145 434 263 793 262 796 -2 4 -716 -790 -820 -912 -21
-25 -36 -32 -73 -35 -28 -2 -44 0 -40 6 7 11 -4 13 -60 11 -22 -1 -57 5 -78
14 -22 9 -36 11 -32 6 3 -6 0 -12 -7 -12 -7 -1 -27 -3 -45 -5 -71 -6 -160 -60
-189 -116 -18 -35 -18 -51 1 -18 l14 25 -1 -25 c-1 -14 -1 -41 1 -60 2 -29 4
-32 11 -15 l9 20 0 -20 c1 -17 7 -13 37 20 l35 40 -7 -30 c-3 -16 -7 -35 -7
-42 0 -7 -4 -10 -8 -7 -4 2 -13 -5 -19 -16 -7 -13 -18 -19 -26 -16 -8 3 -14 0
-14 -7 0 -8 -4 -6 -10 3 -5 8 -10 11 -10 5 0 -24 40 -51 69 -46 8 2 29 0 46
-3 l32 -6 -1 -69 c-1 -57 -5 -74 -24 -96 l-23 -26 27 -32 27 -32 -34 -6 c-19
-3 -44 -11 -56 -17 -12 -7 -31 -12 -43 -12 -19 0 -19 -1 -5 -23 14 -21 13 -29
-4 -83 -11 -32 -22 -78 -26 -101 -4 -24 -11 -43 -15 -43 -19 0 -19 40 -1 82
29 68 36 127 17 134 -9 3 -16 10 -16 16 0 5 5 6 12 2 7 -4 8 -3 4 4 -4 6 -12
9 -19 6 -7 -2 -104 -108 -217 -235 -112 -126 -206 -227 -207 -222 -2 4 -125
597 -274 1318 -148 720 -271 1310 -272 1312 -1 1 -96 -451 -210 -1005z m-552
-409 c59 -10 133 -88 163 -173 12 -36 22 -80 22 -98 l0 -32 -52 6 c-30 3 -65
1 -80 -5 -23 -9 -28 -17 -28 -45 0 -42 8 -66 24 -66 6 0 16 -10 21 -22 6 -14
26 -28 49 -36 22 -7 46 -18 53 -24 26 -21 9 -168 -20 -168 -4 0 -18 -11 -30
-24 -18 -19 -26 -22 -38 -13 -30 23 -38 49 -24 77 7 14 11 38 8 53 -5 26 -8
27 -62 26 -31 -1 -69 -4 -85 -8 -28 -6 -29 -7 -12 -23 10 -10 22 -18 29 -18
12 0 77 -42 77 -50 0 -3 -35 -5 -79 -6 -43 -1 -90 -4 -105 -8 -39 -10 -33 -34
12 -42 46 -8 62 -20 62 -48 0 -16 12 -28 45 -44 53 -26 63 -59 18 -59 -16 -1
-53 -4 -84 -8 -62 -8 -110 9 -130 47 -10 18 -8 24 10 39 11 9 21 27 21 38 0
24 -1 25 -34 10 -20 -10 -30 -9 -51 5 -38 25 -47 58 -50 186 -4 125 4 175 35
210 11 13 20 29 20 36 0 7 20 20 45 30 47 17 48 17 114 -15 32 -16 22 -29 -18
-24 -44 6 -141 -14 -141 -29 0 -5 17 -16 38 -25 20 -8 44 -21 52 -29 21 -18
67 -20 105 -5 42 17 85 61 85 86 0 51 -116 93 -208 75 -30 -5 -58 -13 -64 -16
-12 -7 -9 11 17 102 33 117 121 162 270 137z m2154 -199 c9 -10 -53 6 -63 17
-6 5 4 5 24 -1 18 -5 35 -12 39 -16z m58 -6 c-3 -8 -6 -5 -6 6 -1 11 2 17 5
13 3 -3 4 -12 1 -19z m265 -81 l-7 -22 -3 23 c-2 13 -8 22 -14 20 -9 -3 -88
65 -88 77 0 3 27 -13 59 -35 50 -34 58 -44 53 -63z m-572 48 c-7 -9 -15 -13
-18 -10 -3 2 1 11 8 20 7 9 15 13 18 10 3 -2 -1 -11 -8 -20z m310 -5 c6 -11 9
-20 7 -20 -2 0 -12 9 -22 20 -10 11 -13 20 -7 20 6 0 16 -9 22 -20z m-361 -44
c-7 -14 -16 -26 -21 -26 -5 0 -1 14 7 31 20 37 31 33 14 -5z m708 -67 c42 -54
44 -59 48 -140 6 -90 2 -89 -34 11 -18 53 -20 54 -30 30 -9 -24 -10 -24 -12
10 -1 19 -3 42 -5 50 -1 8 -2 23 -3 33 -1 13 -7 16 -28 13 -20 -4 -23 -2 -15
6 7 7 12 20 12 31 0 29 19 16 67 -44z m-81 -17 c-6 -11 29 -64 37 -56 3 3 3
-4 0 -16 -6 -21 -6 -21 -29 7 -12 15 -21 37 -19 48 5 26 4 25 11 25 3 0 3 -4
0 -8z m-7 -182 c11 -24 11 -24 -3 -6 -9 11 -16 24 -16 30 0 12 5 7 19 -24z
m123 -41 c6 -4 5 -29 -3 -67 -7 -33 -16 -59 -21 -56 -5 3 -5 10 -2 16 4 6 7
43 7 82 0 39 2 62 5 51 2 -11 9 -23 14 -26z m-107 -9 c3 -5 3 -15 -1 -21 -6
-11 -23 6 -24 24 0 10 18 9 25 -3z m-6 -74 c7 -8 14 -31 16 -53 l5 -38 -13 39
c-8 24 -22 42 -35 47 -12 5 -22 11 -22 14 0 11 38 4 49 -9z m88 -78 c-3 -8 -6
-5 -6 6 -1 11 2 17 5 13 3 -3 4 -12 1 -19z m-257 -3 c9 -11 9 -30 0 -85 -6
-38 -16 -68 -21 -65 -4 3 -11 28 -15 55 -4 27 -10 47 -15 44 -5 -3 -9 2 -9 10
0 9 4 16 9 16 5 0 11 9 14 20 6 24 20 26 37 5z m170 -60 c-12 -36 -7 -93 11
-127 9 -17 11 -17 34 -2 21 14 25 14 25 2 0 -32 -134 -138 -173 -138 -8 0 -27
-10 -42 -21 -21 -17 -29 -19 -35 -9 -5 7 -6 19 -3 27 3 7 0 13 -6 13 -7 0 -7
8 -1 26 6 14 10 44 10 68 0 51 14 67 52 59 20 -4 35 0 48 12 24 21 26 45 5 45
-8 0 -15 5 -15 10 0 13 13 13 28 -2 15 -15 38 4 54 48 16 45 23 35 8 -11z
m-133 3 c-3 -7 -5 -2 -5 12 0 14 2 19 5 13 2 -7 2 -19 0 -25z m-415 5 c16 -14
24 -15 52 -5 66 24 88 6 42 -33 -14 -11 -36 -40 -49 -65 -29 -51 -46 -56 -65
-18 -9 20 -10 32 -1 52 9 20 9 32 1 51 -19 41 -12 47 20 18z m-1656 -77 c-4
-17 -13 -67 -21 -111 -8 -44 -22 -113 -31 -154 l-17 -74 -33 39 c-27 32 -30
42 -20 54 18 21 54 117 62 165 9 53 44 126 56 119 6 -4 7 -20 4 -38z m1529
-126 c3 -5 -1 -10 -9 -10 -9 0 -16 5 -16 10 0 6 4 10 9 10 6 0 13 -4 16 -10z
m5 -34 c0 -8 7 -19 15 -26 11 -9 12 -17 5 -30 -13 -25 -13 -30 5 -30 9 0 18 7
21 15 4 8 12 15 20 15 20 0 17 -10 -10 -31 -13 -10 -27 -31 -31 -46 -6 -27 -7
-27 -21 -8 -9 11 -14 32 -11 48 2 17 -3 33 -15 44 -25 22 -24 58 2 60 11 1 20
-4 20 -11z m155 4 c3 -6 -1 -7 -9 -4 -18 7 -21 14 -7 14 6 0 13 -4 16 -10z
m-15 -81 c0 -5 -4 -9 -10 -9 -5 0 -10 7 -10 16 0 8 5 12 10 9 6 -3 10 -10 10
-16z m-170 -102 c0 -6 -38 -32 -85 -56 -47 -25 -85 -48 -85 -53 0 -17 50 -7
115 22 58 26 79 30 153 30 85 0 151 -15 174 -38 9 -9 4 -21 -20 -49 -18 -21
-49 -61 -70 -90 -20 -29 -43 -52 -50 -53 -7 0 -10 -5 -7 -11 4 -6 -6 -27 -22
-47 -16 -20 -44 -63 -63 -94 -19 -32 -38 -58 -43 -58 -4 0 -19 -12 -34 -26
-31 -31 -41 -24 -24 19 7 18 18 50 25 72 16 60 40 91 86 111 38 17 41 21 36
49 -3 16 -7 44 -10 61 -2 17 -7 41 -10 52 -7 20 -4 21 86 24 86 3 91 4 63 16
-22 10 -43 11 -84 4 -50 -9 -56 -8 -76 14 -23 24 -44 24 -95 -3 -14 -7 -30
-13 -37 -13 -6 0 -32 -9 -57 -20 -42 -17 -46 -22 -46 -53 0 -31 2 -33 28 -29
26 3 27 2 27 -40 0 -37 3 -43 23 -46 15 -2 22 -10 22 -26 0 -29 -71 -155 -87
-156 -50 -1 -111 78 -98 128 6 26 6 26 -13 9 -10 -10 -32 -41 -47 -70 -16 -28
-45 -73 -64 -99 -34 -46 -37 -48 -86 -48 l-50 1 35 31 c19 17 81 75 138 129
l102 98 20 96 c11 53 24 103 28 112 8 13 176 111 195 112 4 1 7 -5 7 -12z
m730 -121 c0 -3 -4 -8 -10 -11 -5 -3 -10 -1 -10 4 0 6 5 11 10 11 6 0 10 -2
10 -4z m-210 -95 c0 -5 -7 -12 -16 -15 -24 -9 -28 -7 -14 9 14 17 30 20 30 6z
m199 -95 c16 -42 11 -53 -17 -35 -22 14 -37 53 -26 70 11 18 28 3 43 -35z
m286 -76 c-3 -5 -11 -10 -16 -10 -6 0 -7 5 -4 10 3 6 11 10 16 10 6 0 7 -4 4
-10z m-545 -94 c0 -2 -25 -22 -55 -45 -37 -28 -64 -41 -87 -41 l-32 0 41 30
c46 34 133 70 133 56z m295 -55 l-7 -31 -76 0 -77 1 38 34 c37 32 66 39 95 21
7 -4 12 -4 11 1 -3 19 2 26 12 16 7 -7 8 -24 4 -42z m328 23 c-5 -13 -3 -15
13 -6 10 5 28 9 39 8 30 -2 95 -27 95 -35 0 -5 11 -7 25 -6 14 2 27 -1 31 -6
3 -5 -47 -9 -120 -9 -122 0 -125 1 -121 21 2 12 12 27 22 35 23 17 24 17 16
-2z m-809 -29 c-13 -21 -24 -25 -62 -25 -44 0 -45 0 -28 19 10 11 32 22 50 24
17 2 37 5 44 5 9 2 8 -5 -4 -23z m-2993 -674 c13 -11 21 -23 17 -27 -4 -4 -14
-1 -23 6 -8 7 -15 9 -15 4 0 -11 -20 18 -20 29 0 13 17 8 41 -12z m494 -131
c3 -5 1 -10 -4 -10 -6 0 -11 5 -11 10 0 6 2 10 4 10 3 0 8 -4 11 -10z m126
-370 c-3 -9 -8 -4 -11 15 -4 17 -4 37 -1 45 3 9 8 4 11 -15 4 -16 4 -37 1 -45z
m-64 -2 c-3 -8 -6 -5 -6 6 -1 11 2 17 5 13 3 -3 4 -12 1 -19z m-13 -58 c3 -16
11 -30 19 -30 11 0 47 -63 47 -83 0 -18 -20 -4 -39 27 -26 42 -53 116 -42 116
5 0 11 -13 15 -30z m97 -91 c13 -26 7 -24 -22 7 -17 19 -19 23 -6 18 10 -3 22
-15 28 -25z m3624 -563 c16 -3 34 -1 41 5 8 7 14 4 18 -7 9 -23 3 -26 -28 -15
-19 8 -26 7 -27 -2 0 -9 -2 -9 -5 0 -4 8 -11 7 -24 -4 -10 -9 -17 -20 -15 -24
3 -4 -2 -9 -10 -13 -21 -8 -31 15 -12 29 10 7 17 20 17 29 0 10 4 15 8 12 5
-3 21 -7 37 -10z m90 -16 c3 -5 1 -10 -4 -10 -6 0 -11 5 -11 10 0 6 2 10 4 10
3 0 8 -4 11 -10z m-184 -100 c-17 -17 -31 -27 -31 -20 0 6 7 13 16 17 8 3 13
12 10 19 -3 8 -3 21 1 30 5 14 7 14 21 0 13 -13 11 -18 -17 -46z m-72 -63 c0
-21 -1 -21 -9 -2 -12 28 -12 37 0 30 6 -3 10 -16 9 -28z m-5103 -784 c-11 -11
-26 10 -26 35 l1 27 15 -28 c9 -16 13 -31 10 -34z m-121 -259 c0 -13 -8 -20
-27 -22 -32 -4 -39 21 -10 37 23 14 37 8 37 -15z"/>
<path d="M10626 7011 c-4 -7 -5 -15 -2 -18 9 -9 19 4 14 18 -4 11 -6 11 -12 0z"/>
<path d="M11365 6760 c-3 -5 -1 -10 4 -10 6 0 11 5 11 10 0 6 -2 10 -4 10 -3
0 -8 -4 -11 -10z"/>
<path d="M8036 5621 c9 -10 124 -32 124 -24 0 2 -16 11 -35 19 -39 16 -105 20
-89 5z"/>
<path d="M8022 5548 c-17 -17 -15 -31 3 -24 8 3 15 1 15 -5 0 -6 7 -8 16 -5 9
3 12 2 8 -5 -4 -6 1 -9 13 -7 11 2 28 -4 39 -12 10 -8 5 2 -10 23 -16 20 -32
37 -36 37 -5 0 -14 2 -22 5 -7 3 -19 0 -26 -7z"/>
<path d="M8450 5428 c0 -9 5 -20 11 -23 17 -11 20 0 4 21 -13 17 -14 17 -15 2z"/>
<path d="M7856 5416 c21 -15 30 -14 19 3 -3 6 -14 11 -23 11 -13 0 -13 -2 4
-14z"/>
<path d="M7959 5328 c4 -28 6 -29 9 -9 2 13 0 27 -5 32 -6 6 -7 -3 -4 -23z"/>
<path d="M8510 5301 c0 -6 4 -13 10 -16 6 -3 7 1 4 9 -7 18 -14 21 -14 7z"/>
<path d="M7720 5153 c0 -10 34 -33 72 -49 40 -17 45 -25 59 -97 7 -39 6 -53
-6 -70 -21 -30 -19 -45 8 -49 14 -2 21 -9 21 -21 -2 -24 9 -21 37 10 18 20 20
25 7 20 -12 -4 -18 -1 -18 7 0 8 -7 27 -15 42 -19 38 -19 57 3 81 20 24 42 32
100 35 74 4 56 16 -31 20 -79 4 -98 10 -209 63 -16 7 -28 11 -28 8z"/>
<path d="M7399 5081 c-30 -27 -51 -52 -48 -55 4 -4 30 16 58 45 28 29 50 54
48 55 -2 2 -28 -18 -58 -45z"/>
<path d="M7307 5014 c-4 -4 -7 -17 -7 -28 1 -19 1 -20 11 -3 11 19 8 43 -4 31z"/>
<path d="M10600 4735 l0 -125 85 0 c69 0 85 3 85 15 0 13 59 15 470 15 411 0
470 -2 470 -15 0 -13 23 -15 150 -15 l150 0 0 125 0 125 -705 0 -705 0 0 -125z"/>
<path d="M12495 3750 c-3 -5 1 -10 9 -10 9 0 16 5 16 10 0 6 -4 10 -9 10 -6 0
-13 -4 -16 -10z"/>
<path d="M6821 3738 c-1 -11 -9 -18 -21 -18 -22 0 -27 -15 -9 -26 16 -9 42 20
36 42 -4 17 -5 17 -6 2z"/>
<path d="M11383 3698 c-15 -20 -25 -38 -20 -38 3 0 12 11 21 25 17 26 16 35
-1 13z"/>
<path d="M12509 3703 c-3 -21 4 -59 13 -70 33 -40 14 -243 -30 -326 -40 -74
-198 -227 -221 -213 -10 6 -4 36 9 46 3 3 18 27 34 53 24 42 26 52 16 81 -6
18 -7 41 -4 51 6 14 4 16 -7 10 -11 -7 -12 -6 -3 6 13 16 -1 188 -16 203 -12
12 -12 7 -11 -106 1 -78 -1 -87 -15 -81 -15 5 -16 2 -11 -27 5 -23 2 -41 -8
-56 -8 -13 -16 -35 -17 -49 -1 -14 -8 -25 -15 -25 -8 0 -13 -14 -13 -41 0
-123 -82 -300 -142 -307 -19 -2 -28 -9 -28 -22 0 -37 9 -46 45 -42 38 5 41 1
24 -26 -8 -12 -9 -36 -5 -65 9 -59 25 -62 19 -4 -5 46 24 107 51 107 8 0 30 8
48 18 18 10 40 18 48 18 17 -1 27 -46 11 -46 -6 0 -11 -6 -11 -13 0 -20 -32
-52 -52 -53 -10 -1 -15 2 -12 7 3 5 1 9 -5 9 -6 0 -13 -17 -17 -37 -9 -52 -22
-73 -38 -67 -20 8 -28 -12 -11 -26 8 -7 15 -18 15 -25 0 -15 -27 -28 -41 -19
-5 3 -9 -5 -9 -18 -1 -21 -2 -21 -11 -5 -6 9 -15 15 -20 11 -21 -13 25 -32 65
-26 36 5 39 3 32 -14 -13 -30 -12 -46 2 -51 7 -3 12 3 12 14 1 17 1 17 11 1
17 -29 41 -23 33 9 -6 23 -5 25 12 19 10 -5 27 -11 37 -13 9 -3 17 -9 17 -14
0 -13 -24 -11 -38 3 -8 8 -12 9 -12 1 0 -6 5 -13 11 -15 5 -2 7 -11 3 -21 -4
-11 -13 -16 -24 -12 -13 4 -19 -1 -22 -20 -6 -29 18 -36 25 -7 3 11 5 7 6 -10
1 -18 -5 -29 -18 -33 -24 -7 -31 -33 -31 -116 0 -85 -9 -129 -26 -129 -8 0
-14 -4 -14 -10 0 -5 -7 -10 -15 -10 -8 0 -15 5 -15 10 0 6 4 10 9 10 14 0 22
47 22 122 0 37 4 70 10 74 6 3 -1 15 -15 27 -14 12 -29 33 -35 47 -7 17 -10
20 -10 8 -1 -19 -31 -26 -31 -7 0 5 -4 8 -9 5 -5 -3 -7 -14 -4 -25 3 -12 12
-17 30 -15 17 2 23 -2 19 -11 -3 -8 -1 -17 4 -20 16 -10 11 -22 -11 -28 -17
-5 -20 -11 -16 -28 4 -13 1 -30 -6 -38 -10 -12 -9 -14 6 -8 20 8 22 -10 3 -36
-7 -9 -11 -28 -8 -42 2 -15 0 -25 -7 -25 -9 0 -10 -25 -4 -92 4 -51 7 -101 7
-110 0 -10 6 -18 13 -18 7 0 13 -4 13 -10 0 -19 19 -10 26 13 10 29 13 48 20
130 5 45 11 67 20 67 15 0 10 -103 -6 -108 -14 -5 -12 -69 3 -75 9 -4 8 -8 -3
-16 -8 -6 -10 -11 -4 -11 12 0 37 -97 28 -111 -3 -5 2 -12 11 -16 10 -3 21 0
25 7 5 8 9 9 14 1 5 -7 76 -11 222 -11 l214 0 0 114 c0 62 12 219 26 347 28
255 30 468 4 522 -7 15 -11 29 -8 32 2 2 220 -67 483 -155 263 -88 480 -158
482 -157 1 2 -223 203 -498 447 l-500 443 7 51 c3 28 10 61 15 74 13 34 10 74
-6 96 -8 10 -12 23 -9 27 3 5 -1 9 -8 9 -7 0 -22 14 -33 30 -11 17 -28 33 -38
36 -10 3 -14 11 -11 17 5 9 4 9 -5 1 -7 -6 -24 -9 -39 -6 -24 5 -25 6 -7 13
17 6 17 8 3 8 -10 1 -18 -2 -19 -6z m70 -485 c-1 -29 -56 -124 -77 -133 -24
-11 -31 -28 -7 -19 11 5 13 -2 9 -33 -4 -29 -3 -34 5 -23 8 11 11 12 11 2 0
-7 5 -10 10 -7 11 7 13 -37 4 -72 -8 -31 -44 -36 -154 -22 -112 13 -131 26
-101 67 11 16 23 40 26 55 7 26 9 27 80 27 41 0 77 5 80 10 4 6 -23 10 -74 10
-45 0 -81 4 -81 9 0 4 28 23 63 41 34 18 77 44 95 57 18 14 39 22 47 19 7 -2
19 2 25 10 15 17 40 19 39 2z m-269 -694 c0 -8 8 -14 17 -14 14 0 15 -2 4 -12
-11 -10 -14 -10 -18 0 -3 6 -11 12 -19 12 -9 0 -12 5 -8 12 5 8 2 9 -9 5 -23
-9 -31 10 -10 22 20 11 43 -3 43 -25z m-190 -554 c0 -5 -4 -10 -10 -10 -5 0
-10 5 -10 10 0 6 5 10 10 10 6 0 10 -4 10 -10z m-10 -40 c0 -5 -4 -10 -10 -10
-5 0 -10 5 -10 10 0 6 5 10 10 10 6 0 10 -4 10 -10z"/>
<path d="M11301 3626 c-18 -19 -31 -40 -29 -47 2 -7 18 6 37 30 41 52 36 62
-8 17z"/>
<path d="M11353 3633 c3 -16 1 -23 -9 -23 -8 0 -14 -4 -14 -10 0 -5 4 -10 9
-10 5 0 16 -3 25 -6 21 -8 21 24 -1 51 -15 20 -15 20 -10 -2z"/>
<path d="M11682 3115 c2 -3 38 -12 79 -20 41 -9 96 -20 122 -26 26 -6 67 -9
90 -7 37 3 42 6 45 31 l3 27 -172 0 c-95 0 -170 -2 -167 -5z"/>
<path d="M12126 2501 c-4 -7 -5 -15 -2 -18 9 -9 19 4 14 18 -4 11 -6 11 -12 0z"/>
<path d="M12069 2470 c-11 -7 -10 -10 3 -15 24 -10 38 -2 23 12 -7 6 -18 8
-26 3z"/>
</g>
</svg>
